# xmcd
#
# Track frame offsets: 
#        150
#        18707
#        34615
#        66032
#        86825
#        105412
#        119170
#        138952
#        155195
#        169767
#
# Disc length: 2545 seconds
#
# Revision: 0
# Processed by: cddbd v1.5.2PL0 Copyright (c) Steve Scherf et al.
# Submitted via: ExactAudioCopy v1.0b3
#
DISCID=8809ef0a
DTITLE=Robert Ellis - Photographs
DYEAR=2011
DGENRE=
TTITLE0=Friends Like You
TTITLE1=Bamboo
TTITLE2=Cemetery
TTITLE3=Two Cans of Paint
TTITLE4=Westbound Train
TTITLE5=Comin' Home
TTITLE6=What's In It For Me?
TTITLE7=I'll Never Give Up On You
TTITLE8=No Fun
TTITLE9=Photographs
EXTD=
EXTT0=
EXTT1=
EXTT2=
EXTT3=
EXTT4=
EXTT5=
EXTT6=
EXTT7=
EXTT8=
EXTT9=
PLAYORDER=
